# File produced by Open Asset Import Library (http://www.assimp.sf.net)
# (assimp v4.1.0)

mtllib arm_segment_b_convex.mtl

# 48 vertex positions
v  -0.05144999921321869 0.002442999975755811 0.2503499984741211
v  -4.300000000512227e-05 0.001588999992236495 0.2716200053691864
v  0.05052199959754944 0.00132899999152869 0.2506699860095978
v  0.06632799655199051 0.001567999948747456 0.2209929972887039
v  0.03376999869942665 0.003348999889567494 0.1178459972143173
v  -0.02655700035393238 0.004002999980002642 0.1180339977145195
v  -0.06472799926996231 0.002930999966338277 0.225502997636795
v  0.05193699896335602 -0.1074400022625923 0.1960349977016449
v  1.499999962106813e-05 -0.08823700249195099 0.09146100282669067
v  0.04938000068068504 -0.06330599635839462 0.09864299744367599
v  -0.01166099961847067 -0.1225960031151772 0.1963959932327271
v  -0.05375799909234047 -0.1075550019741058 0.2099069952964783
v  -0.03265399858355522 -0.07881999760866165 0.09417299926280975
v  -0.03969600051641464 -0.08863600343465805 0.2528370022773743
v  -0.07269000262022018 -0.04647000133991241 0.1901669949293137
v  0.04907000064849854 -0.08777300268411636 0.2442129999399185
v  0.03830999881029129 -0.1169930025935173 0.2334299981594086
v  -0.05446900054812431 -0.01386800035834312 0.1128859966993332
v  0.07235600054264069 -0.04652899876236916 0.1883109956979752
v  0.05663099884986877 -0.020261000841856 0.1110439971089363
v  0.01331800036132336 -0.09021300077438354 0.2640050053596497
v  -0.0004290000069886446 -0.1230010017752647 0.2438880056142807
v  -0.05428199842572212 -0.05384600162506104 0.1013680025935173
v  -0.03868300095200539 -0.1163280010223389 0.2341250032186508
v  -0.06474500149488449 0.02780099958181381 -0.01850000023841858
v  -0.0400179997086525 0.05793099850416183 -0.01850000023841858
v  0.02748499996960163 0.06458000093698502 -0.01850000023841858
v  0.0582440011203289 0.03933599963784218 -0.01850000023841858
v  0.07033299654722214 -0.0005159999709576368 -0.01850000023841858
v  0.0654430016875267 -0.02510200068354607 -0.01850000023841858
v  0.03914200142025948 -0.05714799836277962 -0.01850000023841858
v  -0.02557099983096123 -0.06352200359106064 -0.01850000023841858
v  -0.05925200134515762 -0.03679199889302254 -0.01850000023841858
v  -0.07033000141382217 -0.0002739999908953905 -0.01850000023841858
v  0.03875600174069405 0.05589000135660172 0.05386700108647346
v  0.0130249997600913 0.05285799875855446 0.08119700103998184
v  0.04970600083470345 -0.01135400030761957 0.1344240009784698
v  -0.03322099894285202 -0.08374900370836258 0.1135670021176338
v  -0.04250599816441536 -0.005512999836355448 0.1361059993505478
v  -0.02644200064241886 0.05725999921560287 0.06857900321483612
v  -0.06478600203990936 0.02477999962866306 0.05246499925851822
v  0.03441299870610237 -0.08271600306034088 0.1138639971613884
v  0.05973900109529495 -0.03703499957919121 0.1270249933004379
v  0.02924299985170364 -0.003166999900713563 0.1367820054292679
v  -0.05973799899220467 -0.036981001496315 0.1270409971475601
v  0.0008539999835193157 -0.09360899776220322 0.110725998878479
v  0.06458000093698502 0.02496100030839443 0.05275699868798256
v  -0.001216999953612685 0.07006900012493134 0.03879300132393837

# 0 UV coordinates

# 81 vertex normals
vn 0.01087941229343414 0.9998449087142944 0.01385000068694353
vn 0.01087942346930504 0.9998449683189392 0.01384652033448219
vn 0.01087558269500732 0.9998452067375183 0.01383110508322716
vn 0.01088235527276993 0.9998450875282288 0.01383545994758606
vn 0.01086335070431232 0.9998453259468079 0.01383188832551241
vn 0.4607058465480804 -0.8038105368614197 -0.3763492107391357
vn -0.4030305743217468 -0.8683294057846069 -0.2890853881835938
vn -0.911024272441864 -0.1324831545352936 0.3904906511306763
vn -0.9140236973762512 -0.1632782220840454 0.3713500499725342
vn 0.886628270149231 -0.407323956489563 0.2190377712249756
vn -0.9618912935256958 0.2437095642089844 -0.1239787861704826
vn 0.9699391722679138 0.2077117413282394 -0.1267827600240707
vn 0.8817495107650757 -0.04837285727262497 0.4692311882972717
vn -0.1967717409133911 -0.4514791071414948 0.8703145980834961
vn 6.693097930110525e-06 0.2768443524837494 -0.9609147906303406
vn 3.407376652830862e-06 0.2768339514732361 -0.9609177708625793
vn -4.476274625631049e-06 0.2768257260322571 -0.9609201550483704
vn 2.90256994048832e-05 0.276834636926651 -0.960917592048645
vn -3.591401537050842e-06 0.2768368721008301 -0.9609169363975525
vn -2.686063271539751e-05 0.2768471539020538 -0.9609139561653137
vn 0.1420333534479141 -0.9889693856239319 -0.04202495887875557
vn -0.3825543522834778 -0.02414940111339092 0.9236173629760742
vn 0.3825904726982117 -0.02093677408993244 0.9236807823181152
vn -0.9260850548744202 -0.3399343490600586 -0.1637408435344696
vn 0.9265798926353455 -0.3328247666358948 -0.1751494407653809
vn -0.5084401965141296 0.8437091708183289 -0.1721725612878799
vn 0.2946365177631378 -0.5864512324333191 0.7544960379600525
vn 0.6743026971817017 0.7106950879096985 -0.2005700469017029
vn -0.1802174746990204 -0.9830306768417358 0.03423894569277763
vn 0.2209535241127014 -0.9338684678077698 -0.2811925113201141
vn -0.7638529539108276 -0.5799027681350708 -0.283269077539444
vn 0.9399234056472778 -0.29283607006073 0.1754735708236694
vn 0.9683576822280884 -0.09685868769884109 -0.2300038933753967
vn -0.2080231010913849 -0.1108885481953621 0.9718179702758789
vn -0.9767758846282959 0.05508702993392944 -0.2070610970258713
vn 0.4556386172771454 -0.4509988129138947 0.7674591541290283
vn 0.9423957467079163 -0.09899982810020447 0.3195140957832336
vn -0.878312349319458 -0.1005861982703209 0.4673861861228943
vn -0.2953417003154755 -0.5423002243041992 0.7865645289421082
vn -0.3650008141994476 -0.9247465133666992 -0.1077881306409836
vn -0.8529785871505737 -0.3132910430431366 0.4174640774726868
vn -0.2867183983325958 -0.9005613923072815 -0.3267748057842255
vn 0.2278755456209183 -0.960081160068512 -0.1622247844934464
vn 0.4868120849132538 -0.07102417200803757 0.8706144690513611
vn 0 0 -1
vn 0.4745536744594574 0.7064050436019897 0.5251578092575073
vn -0.6142176389694214 -0.773941695690155 -0.154113307595253
vn -0.6842541694641113 0.6080974340438843 0.4025093019008636
vn 0.7695327401161194 -0.6315759420394897 -0.09450466185808182
vn 0.634393036365509 0.7729874849319458 -0.005983175244182348
vn 5.688302280759672e-06 -0.2768486440181732 0.9609135389328003
vn -3.202447624062188e-05 -0.2768411636352539 0.9609156847000122
vn -1.673927840784017e-06 -0.2768393456935883 0.9609162211418152
vn 1.690005774435122e-05 -0.2768222689628601 0.9609211087226868
vn 8.668200280226301e-06 -0.2768379151821136 0.9609166383743286
vn 8.744304068386555e-06 -0.2768425047397614 0.9609153270721436
vn -0.7727385759353638 0.6341688632965088 0.02655029296875
vn 0.09505626559257507 -0.9650723934173584 -0.2441303580999374
vn -0.9569314122200012 -0.2902920842170715 -0.003572411835193634
vn 0.9970346689224243 0.01300589367747307 0.07584637403488159
vn -0.02960320562124252 0.6996734738349915 0.7138491868972778
vn -0.09701800346374512 0.9849607348442078 -0.1429678946733475
vn -0.01887298561632633 0.9241956472396851 0.381452739238739
vn -0.9971603155136108 0.008807924576103687 0.0747915506362915
vn 0.9566036462783813 0.2901830971240997 -0.02651891857385635
vn -0.3872555494308472 0.9195011258125305 0.06746017932891846
vn 0.8752234578132629 -0.483689159154892 -0.005357068032026291
vn -0.8703339099884033 -0.4924492835998535 -0.003545766696333885
vn -0.286702960729599 -0.9443529844284058 -0.1612416803836823
vn 0.3116301894187927 0.9479572176933289 0.0652972087264061
vn 0.7139976024627686 0.5821903944015503 0.388923853635788
vn -0.8578469157218933 0.3657712340354919 0.3609849214553833
vn 0.3185491263866425 -0.9327566027641296 -0.1687944382429123
vn 0.9169372916221619 0.2748938798904419 0.2892391979694366
vn -0.6689293384552002 0.7351487874984741 0.1099538132548332
vn -0.9807523488998413 0.1951024681329727 0.00773893017321825
vn 0.7672715783119202 0.6384552121162415 0.06057455390691757
vn -0.1279220432043076 0.7413926720619202 0.6587661504745483
vn 0.9805418252944946 -0.1950233578681946 0.02244148962199688
vn 0.2142817229032516 0.9280305504798889 0.3047008514404297
vn 0.3537936210632324 0.7083794474601746 0.6107606887817383

# Mesh '<STL_BINARY>' with 88 faces
g <STL_BINARY>
usemtl DefaultMaterial
f  1//1 2//1 3//1
f  1//2 3//2 4//2
f  1//3 4//3 5//3
f  1//4 5//4 6//4
f  1//5 6//5 7//5
f  8//6 9//6 10//6
f  11//7 12//7 13//7
f  14//8 7//8 15//8
f  14//9 15//9 12//9
f  8//10 16//10 17//10
f  15//11 7//11 18//11
f  4//12 19//12 20//12
f  16//13 4//13 3//13
f  21//14 14//14 22//14
f  6//15 5//15 20//15
f  6//16 20//16 10//16
f  6//17 10//17 9//17
f  6//18 9//18 13//18
f  6//19 13//19 23//19
f  6//20 23//20 18//20
f  17//21 22//21 11//21
f  2//22 1//22 14//22
f  3//23 2//23 21//23
f  12//24 15//24 23//24
f  8//25 10//25 19//25
f  7//26 6//26 18//26
f  17//27 21//27 22//27
f  5//28 4//28 20//28
f  11//29 22//29 24//29
f  9//30 8//30 11//30
f  13//31 12//31 23//31
f  16//32 8//32 19//32
f  20//33 19//33 10//33
f  14//34 21//34 2//34
f  15//35 18//35 23//35
f  17//36 16//36 21//36
f  16//37 19//37 4//37
f  1//38 7//38 14//38
f  24//39 22//39 14//39
f  12//40 11//40 24//40
f  14//41 12//41 24//41
f  9//42 11//42 13//42
f  8//43 17//43 11//43
f  16//44 3//44 21//44
f  25//45 26//45 27//45
f  25//45 27//45 28//45
f  25//45 28//45 29//45
f  25//45 29//45 30//45
f  25//45 30//45 31//45
f  25//45 31//45 32//45
f  25//45 32//45 33//45
f  25//45 33//45 34//45
f  35//46 36//46 37//46
f  33//47 32//47 38//47
f  39//48 40//48 41//48
f  42//49 31//49 30//49
f  28//50 27//50 35//50
f  42//51 43//51 37//51
f  42//52 37//52 44//52
f  42//53 44//53 39//53
f  42//54 39//54 45//54
f  42//55 45//55 38//55
f  42//56 38//56 46//56
f  41//57 26//57 25//57
f  32//58 31//58 46//58
f  34//59 33//59 45//59
f  29//60 47//60 43//60
f  39//61 44//61 36//61
f  27//62 26//62 48//62
f  36//63 48//63 40//63
f  34//64 45//64 41//64
f  29//65 28//65 47//65
f  40//66 48//66 26//66
f  43//67 42//67 30//67
f  33//68 38//68 45//68
f  32//69 46//69 38//69
f  35//70 27//70 48//70
f  35//71 37//71 47//71
f  39//72 41//72 45//72
f  31//73 42//73 46//73
f  37//74 43//74 47//74
f  41//75 40//75 26//75
f  25//76 34//76 41//76
f  28//77 35//77 47//77
f  40//78 39//78 36//78
f  30//79 29//79 43//79
f  36//80 35//80 48//80
f  37//81 36//81 44//81

