# File produced by Open Asset Import Library (http://www.assimp.sf.net)
# (assimp v4.1.0)

mtllib arm_base_convex.mtl

# 24 vertex positions
v  0.03816600143909454 -0.05731900036334991 0.1284999996423721
v  0.06731700152158737 -0.01369199994951487 0.1284999996423721
v  0.06341999769210815 0.0265319999307394 0.1284999996423721
v  0.04857499897480011 0.04839500039815903 0.1284999996423721
v  0.0265319999307394 0.06341999769210815 0.1284999996423721
v  -0.01353299990296364 0.06736499816179276 0.1284999996423721
v  -0.0386900007724762 0.05653500184416771 0.1284999996423721
v  -0.06731700152158737 0.01369099970906973 0.1284999996423721
v  -0.06341999769210815 -0.0265319999307394 0.1284999996423721
v  -0.04811500012874603 -0.04899600148200989 0.1284999996423721
v  -0.02629600092768669 -0.06341499835252762 0.1284999996423721
v  0.0004480000061448663 -0.06887199729681015 0.1284999996423721
v  -0.05105499923229218 0.07644800096750259 -0.009999999776482582
v  0.0001480000064475462 0.09213200211524963 -0.009999999776482582
v  0.05082999914884567 0.07651299983263016 -0.009999999776482582
v  0.07651299983263016 0.05082999914884567 -0.009999999776482582
v  0.09208499640226364 -4.999999873689376e-06 -0.009999999776482582
v  0.07644800096750259 -0.05105499923229218 -0.009999999776482582
v  0.05072800070047379 -0.076774001121521 -0.009999999776482582
v  0.0004920000210404396 -0.09216199815273285 -0.009999999776482582
v  -0.0351950004696846 -0.0848810002207756 -0.009999999776482582
v  -0.0764319971203804 -0.05109599977731705 -0.009999999776482582
v  -0.09208499640226364 4.999999873689376e-06 -0.009999999776482582
v  -0.07644800096750259 0.05105499923229218 -0.009999999776482582

# 0 UV coordinates

# 26 vertex normals
vn 0 0 1
vn 0 0 -1
vn 0.814576268196106 -0.5442894101142883 0.2005355954170227
vn -0.8145831823348999 0.5442785620689392 0.2005370557308197
vn -0.6275168657302856 -0.7659289836883545 0.1399122178554535
vn 0.6987555027008057 0.6987555027008057 0.1532368212938309
vn 0.09631027281284332 0.9781167507171631 0.1844234019517899
vn 0.2891508936882019 -0.9440141916275024 0.1588362008333206
vn 0.2891638875007629 -0.9440109729766846 0.158831849694252
vn -0.9466816186904907 -0.2899827063083649 0.1403708010911942
vn 0.946679413318634 0.2899909317493439 0.1403687745332718
vn -0.2899674475193024 0.9466463923454285 0.1406393498182297
vn 0.9466478824615479 -0.2899653017520905 0.1406340450048447
vn -0.946647584438324 0.2899652123451233 0.1406360864639282
vn -0.1972683817148209 -0.966785192489624 0.1625162810087204
vn -0.1972482055425644 -0.9667900800704956 0.1625116467475891
vn 0.2915830910205841 0.9461560845375061 0.1405986249446869
vn 0.9782869815826416 0.09477894008159637 0.1843136996030807
vn -0.9782868623733521 -0.09478128701448441 0.1843132078647614
vn 0.6978315114974976 -0.6978585720062256 0.1613212823867798
vn -0.6976965069770813 0.6976965069770813 0.1626010686159134
vn -0.8137025237083435 -0.5543854236602783 0.1747712641954422
vn 0.5546128153800964 0.813666045665741 0.1742188632488251
vn 0.8146815299987793 0.5531695485115051 0.17406165599823
vn -0.5440021157264709 -0.8231905698776245 0.1625392436981201
vn -0.3899884819984436 0.9059042930603027 0.1650648266077042

# Mesh '<STL_BINARY>' with 44 faces
g <STL_BINARY>
usemtl DefaultMaterial
f  1//1 2//1 3//1
f  1//1 3//1 4//1
f  1//1 4//1 5//1
f  1//1 5//1 6//1
f  1//1 6//1 7//1
f  1//1 7//1 8//1
f  1//1 8//1 9//1
f  1//1 9//1 10//1
f  1//1 10//1 11//1
f  1//1 11//1 12//1
f  13//2 14//2 15//2
f  13//2 15//2 16//2
f  13//2 16//2 17//2
f  13//2 17//2 18//2
f  13//2 18//2 19//2
f  13//2 19//2 20//2
f  13//2 20//2 21//2
f  13//2 21//2 22//2
f  13//2 22//2 23//2
f  13//2 23//2 24//2
f  2//3 1//3 18//3
f  8//4 7//4 24//4
f  22//5 21//5 10//5
f  16//6 15//6 4//6
f  6//7 5//7 14//7
f  1//8 12//8 20//8
f  1//9 20//9 19//9
f  9//10 23//10 22//10
f  3//11 17//11 16//11
f  6//12 14//12 13//12
f  2//13 18//13 17//13
f  8//14 24//14 23//14
f  12//15 11//15 21//15
f  12//16 21//16 20//16
f  5//17 15//17 14//17
f  3//18 2//18 17//18
f  9//19 8//19 23//19
f  18//20 1//20 19//20
f  7//21 13//21 24//21
f  10//22 9//22 22//22
f  5//23 4//23 15//23
f  4//24 3//24 16//24
f  11//25 10//25 21//25
f  7//26 6//26 13//26

