# File produced by Open Asset Import Library (http://www.assimp.sf.net)
# (assimp v4.1.0)

mtllib arm_segment_a_convex.mtl

# 52 vertex positions
v  0.07078199833631516 -0.0002859999949578196 -0.001500000013038516
v  0.05973000079393387 -0.03647699952125549 -0.001500000013038516
v  0.03901199996471405 -0.05719500035047531 -0.001500000013038516
v  -0.02757499925792217 -0.06298600137233734 -0.001500000013038516
v  -0.06000800058245659 -0.03643399849534035 -0.001500000013038516
v  -0.07236699759960175 -0.01429300010204315 -0.001500000013038516
v  -0.07171899825334549 -0.003141999943181872 -0.001500000013038516
v  -0.05721500143408775 0.04435500130057335 -0.001500000013038516
v  -0.04115400090813637 0.0593469999730587 -0.001500000013038516
v  -0.004240999929606915 0.07230699807405472 -0.001500000013038516
v  0.03897200152277946 0.05911200121045113 -0.001500000013038516
v  0.05488799884915352 0.03548799827694893 0.06993599981069565
v  0.03077599965035915 0.06166199967265129 0.05211199820041656
v  0.01275699958205223 0.05319600179791451 0.08069700002670288
v  0.03894300013780594 -0.004687000066041946 0.1440999954938889
v  0.04813599959015846 -0.00940100010484457 0.1430239975452423
v  -0.03229599818587303 -0.08926399797201157 0.1247960031032562
v  -0.04496699944138527 -0.008103000000119209 0.1433209925889969
v  -0.02595300041139126 0.05729100108146667 0.06936000287532806
v  -0.06429299712181091 0.02583899907767773 0.05222700163722038
v  0.03336400166153908 -0.08816300332546234 0.1250479966402054
v  0.02405899949371815 -0.09706100076436996 0.1230159997940063
v  0.06455300003290176 0.02504399977624416 0.05238600075244904
v  0.001134000020101666 -0.09916099905967712 0.1225370019674301
v  0.06126299872994423 -0.03836600109934807 0.1364129930734634
v  -0.06113199889659882 -0.03773500025272369 0.1365569978952408
v  -0.0003450000076554716 0.07113900035619736 0.02280700020492077
v  0.04997700080275536 0.01850000023841858 0.2502450048923492
v  0.06799100339412689 0.01850000023841858 0.2165410071611404
v  0.05785800144076347 0.01850000023841858 0.1656019985675812
v  -0.0001550000015413389 0.01850000023841858 0.1345929950475693
v  -0.04852800071239471 0.01850000023841858 0.1546290069818497
v  -0.06755600124597549 0.01850000023841858 0.2173559963703156
v  -0.04977599903941154 0.01850000023841858 0.2506180107593536
v  -0.001040000002831221 0.01850000023841858 0.2724350094795227
v  0.04268399998545647 -0.07520800083875656 0.1043569967150688
v  0.0518219992518425 -0.1077539995312691 0.1959159970283508
v  0 -0.09179700165987015 0.09936299920082092
v  -0.04268399998545647 -0.07520800083875656 0.1043569967150688
v  -0.0518219992518425 -0.1077539995312691 0.1959159970283508
v  0.04569600149989128 -0.09203500300645828 0.2499449998140335
v  0.03787299990653992 -0.1184670031070709 0.2324540019035339
v  -0.06006399914622307 -0.03519099950790405 0.1164039969444275
v  -0.03697200119495392 -0.1190930008888245 0.2349400073289871
v  -0.04855599999427795 -0.08833999931812286 0.2452410012483597
v  0.06014199927449226 -0.03501199930906296 0.116457998752594
v  0.000395999988541007 0.01487599965184927 0.1314759999513626
v  -0.07303699851036072 -0.03508999943733215 0.2032590061426163
v  0.01285200007259846 -0.09010899811983109 0.2642680108547211
v  -0.002526999916881323 -0.1243330016732216 0.2436729967594147
v  0.07458200305700302 -0.03849099949002266 0.1848769932985306
v  -0.07227099686861038 -0.04689399898052216 0.1881739944219589

# 0 UV coordinates

# 83 vertex normals
vn 0 0 -1
vn 0.4410041868686676 0.7460347414016724 0.4989463686943054
vn 0.44100421667099 0.7460353970527649 0.4989453554153442
vn 0.4409638941287994 0.7460571527481079 0.4989484846591949
vn -0.6229316592216492 -0.7609047293663025 -0.181604415178299
vn -0.6822807192802429 0.6258262991905212 0.3779343962669373
vn 0.7001175880432129 -0.7001502513885498 -0.1400890797376633
vn 0.7001343965530396 -0.7001343965530396 -0.140084445476532
vn 0.7075456380844116 0.7027037739753723 0.07474356144666672
vn 0.7667543888092041 0.6406283974647522 0.0410233773291111
vn 1.068658730218885e-05 -0.2224936634302139 0.9749341607093811
vn -8.526531928509939e-06 -0.222625657916069 0.9749040007591248
vn -1.075255204341374e-05 -0.2224994897842407 0.9749327898025513
vn 2.190191565887289e-07 -0.2225186675786972 0.9749284386634827
vn 4.952297786076088e-06 -0.2225231975317001 0.9749274253845215
vn 8.067083399510011e-06 -0.2225256860256195 0.9749268293380737
vn -2.314866833330598e-05 -0.2225303202867508 0.9749257564544678
vn 0.0827903151512146 -0.9519526362419128 -0.2948422729969025
vn 0.09324468672275543 -0.9498147368431091 -0.2985924184322357
vn -0.03676407039165497 0.7533274292945862 0.6566172242164612
vn -0.1296041458845139 0.7050600647926331 0.6972037553787231
vn -0.8731111288070679 -0.4873663485050201 -0.01228785514831543
vn -0.8737083673477173 -0.4863147139549255 -0.01147407758980989
vn 0.8946488499641418 0.3390826880931854 0.29090616106987
vn 0.8946572542190552 0.3390649557113647 0.2909009754657745
vn -0.9560950398445129 0.2919594645500183 -0.02533761970698833
vn -0.3296777606010437 0.9389967322349548 0.09796793758869171
vn -0.3296885788440704 0.9389933347702026 0.09796390682458878
vn 0.9562962055206299 -0.292033463716507 -0.01462988927960396
vn 0.2920367419719696 0.9564067125320435 -0.0008513684733770788
vn 0.2920407056808472 0.9564055204391479 -0.0008443328551948071
vn -0.9941993951797485 0.05777424201369286 0.09071740508079529
vn -0.9924260377883911 0.07729986310005188 0.09547396004199982
vn 0.8752629160881042 0.4687381684780121 -0.1191613078117371
vn 0.01537871826440096 0.9560368657112122 0.2928429245948792
vn 0.01537043508142233 0.9560365080833435 0.2928446531295776
vn -0.6735749840736389 0.7216041684150696 0.1599505394697189
vn -0.6684920191764832 0.7253098487854004 0.1644507944583893
vn 0.8738827705383301 -0.4858610332012177 -0.0163686741143465
vn -0.2905551791191101 -0.934571385383606 -0.2053142935037613
vn 0.9943797588348389 0.06206567585468292 0.08577118813991547
vn -0.8586099743843079 0.3933565318584442 0.328724205493927
vn 0 1 0
vn 0.3748528957366943 -0.8610989451408386 -0.3435023427009583
vn -0.3748528957366943 -0.8610989451408386 -0.3435023427009583
vn 0.8866125345230103 -0.407355934381485 0.2190418541431427
vn -0.8847032189369202 0.3811520934104919 -0.2683714628219604
vn -0.8866227269172668 -0.4073387682437897 0.2190326005220413
vn 0.3628013432025909 0.6387470364570618 -0.6785112023353577
vn 0.362725555896759 0.6386926770210266 -0.6786028742790222
vn 0.8813806772232056 -0.03541426360607147 0.4710774421691895
vn -0.8814057111740112 -0.03379013761878014 0.4711499214172363
vn -0.8814128637313843 -0.03377605602145195 0.4711374938488007
vn -0.2819013297557831 -0.3985249102115631 0.8727596998214722
vn -0.2819008231163025 -0.3985256254673004 0.8727595806121826
vn 0.9182074069976807 -0.3353248834609985 -0.2108374089002609
vn 0.9182054996490479 -0.3353281021118164 -0.2108405381441116
vn 9.122831215790939e-06 0.2882664501667023 -0.9575502276420593
vn 4.438653888882982e-07 0.2882626950740814 -0.9575513601303101
vn -4.425864403856394e-07 0.2882626950740814 -0.9575513601303101
vn -6.050483079889091e-06 0.2882651686668396 -0.9575506448745728
vn -0.9182018637657166 -0.3353375196456909 -0.2108413428068161
vn -0.9182076454162598 -0.3353157043457031 -0.2108507603406906
vn 0.9575081467628479 0.216561034321785 -0.1904715597629547
vn 0.9574393033981323 0.2163385897874832 -0.1910695284605026
vn -0.4080632328987122 -0.05053604021668434 0.9115539193153381
vn 0.3987934589385986 -0.01793589256703854 0.916865348815918
vn 0.3987873196601868 -0.01793344505131245 0.9168680906295776
vn -0.09180794656276703 -0.9710477590560913 -0.2205391824245453
vn -0.1317140311002731 -0.9642247557640076 -0.2300479263067245
vn 0.2946329116821289 -0.5864699482917786 0.7544829249382019
vn 0.2946703732013702 -0.5864434838294983 0.7544888257980347
vn -0.3081296384334564 0.5929938554763794 -0.743918240070343
vn -0.3074319660663605 0.5948390960693359 -0.74273282289505
vn -0.9801962375640869 0.1352303475141525 -0.1446656286716461
vn -0.9766762256622314 0.1422090977430344 -0.1608730405569077
vn 0.1342162787914276 -0.9635835289955139 -0.231284961104393
vn 0.08072077482938766 -0.9726327657699585 -0.2178753912448883
vn 0.9415699243545532 -0.2794305086135864 0.1880549639463425
vn -0.93975830078125 -0.2922856211662292 0.1772667467594147
vn -0.9389651417732239 -0.2924474775791168 0.181160032749176
vn -0.2970625162124634 -0.1093264222145081 0.9485787153244019
vn 0.9345585107803345 -0.08401510119438171 0.3457483053207397

# Mesh '<STL_BINARY>' with 96 faces
g <STL_BINARY>
usemtl DefaultMaterial
f  1//1 2//1 3//1
f  1//1 3//1 4//1
f  1//1 4//1 5//1
f  1//1 5//1 6//1
f  1//1 6//1 7//1
f  1//1 7//1 8//1
f  1//1 8//1 9//1
f  1//1 9//1 10//1
f  1//1 10//1 11//1
f  12//2 13//2 14//2
f  12//3 14//3 15//3
f  12//4 15//4 16//4
f  5//5 4//5 17//5
f  18//6 19//6 20//6
f  21//7 22//7 3//7
f  21//8 3//8 2//8
f  11//9 13//9 12//9
f  11//10 12//10 23//10
f  17//11 24//11 22//11
f  17//12 22//12 21//12
f  17//13 21//13 25//13
f  17//14 25//14 16//14
f  17//15 16//15 15//15
f  17//16 15//16 18//16
f  17//17 18//17 26//17
f  4//18 3//18 22//18
f  4//19 22//19 24//19
f  19//20 18//20 15//20
f  19//21 15//21 14//21
f  6//22 5//22 17//22
f  6//23 17//23 26//23
f  23//24 12//24 16//24
f  23//25 16//25 25//25
f  8//26 7//26 20//26
f  10//27 9//27 19//27
f  10//28 19//28 27//28
f  2//29 1//29 25//29
f  11//30 10//30 27//30
f  11//31 27//31 13//31
f  7//32 6//32 26//32
f  7//33 26//33 20//33
f  1//34 11//34 23//34
f  14//35 13//35 27//35
f  14//36 27//36 19//36
f  9//37 8//37 20//37
f  9//38 20//38 19//38
f  21//39 2//39 25//39
f  4//40 24//40 17//40
f  25//41 1//41 23//41
f  18//42 20//42 26//42
f  28//43 29//43 30//43
f  28//43 30//43 31//43
f  28//43 31//43 32//43
f  28//43 32//43 33//43
f  28//43 33//43 34//43
f  28//43 34//43 35//43
f  36//44 37//44 38//44
f  39//45 38//45 40//45
f  41//46 42//46 37//46
f  33//47 32//47 43//47
f  40//48 44//48 45//48
f  46//49 47//49 31//49
f  46//50 31//50 30//50
f  29//51 28//51 41//51
f  34//52 33//52 48//52
f  34//53 48//53 45//53
f  49//54 45//54 44//54
f  49//55 44//55 50//55
f  37//56 36//56 46//56
f  37//57 46//57 51//57
f  47//58 46//58 36//58
f  47//59 36//59 38//59
f  47//60 38//60 39//60
f  47//61 39//61 43//61
f  39//62 40//62 52//62
f  39//63 52//63 43//63
f  30//64 29//64 51//64
f  30//65 51//65 46//65
f  35//66 34//66 45//66
f  28//67 35//67 49//67
f  28//68 49//68 41//68
f  38//69 50//69 44//69
f  38//70 44//70 40//70
f  42//71 41//71 49//71
f  42//72 49//72 50//72
f  32//73 31//73 47//73
f  32//74 47//74 43//74
f  33//75 43//75 52//75
f  33//76 52//76 48//76
f  38//77 37//77 42//77
f  38//78 42//78 50//78
f  41//79 37//79 51//79
f  40//80 45//80 48//80
f  40//81 48//81 52//81
f  45//82 49//82 35//82
f  29//83 41//83 51//83

